<svg width="81" height="81" viewBox="0 0 81 81" fill="none" xmlns="http://www.w3.org/2000/svg">
<path d="M63.6854 44.9243C63.2358 47.2818 64.1089 49.1892 66.4698 50.0213L66.6974 48.8278C65.0388 48.2366 64.3971 46.8773 64.7259 45.1533C65.1587 42.8842 67.0381 41.8378 69.7197 42.3493L69.8376 42.3718C72.4898 42.8777 73.906 44.6596 73.4901 46.8403C73.1472 48.6378 72.145 49.4087 70.4884 49.3676L70.2467 50.6348C72.5727 50.8494 74.0908 49.2149 74.5096 47.0194C75.0548 44.161 73.1995 41.6387 70.0758 41.0429L69.9579 41.0204C66.7164 40.4021 64.2672 41.8743 63.6854 44.9243Z" fill="#101012"/>
<path d="M61.7681 52.7339C62.6018 51.38 64.1093 51.1633 65.6292 52.0993L65.7314 52.1622C67.2641 53.1061 67.7412 54.5626 66.9153 55.9037C66.0973 57.232 64.5741 57.4742 63.0286 56.5225L62.9392 56.4674C61.4321 55.5393 60.9422 54.075 61.7681 52.7339ZM60.8946 52.1784C59.7227 54.0815 60.2575 56.331 62.2756 57.5737L62.3777 57.6367C64.383 58.8715 66.6325 58.3367 67.7966 56.4464C68.9607 54.5561 68.4131 52.2987 66.4078 51.0638L66.3057 51.0009C64.3515 49.7974 62.0666 50.2753 60.8946 52.1784Z" fill="#101012"/>
<path d="M58.1042 56.5024L57.1476 57.2992L60.1908 60.9528C61.0932 62.0362 60.7684 63.2634 59.8809 64.0026C58.9128 64.809 58.0697 64.7109 57.1865 63.6505L54.0472 59.8817L53.0906 60.6785L56.1722 64.3782C57.6315 66.1301 59.0738 66.0805 60.3186 65.0436C61.3098 64.218 61.5654 63.1656 61.3716 62.3705L62.1685 63.3271L63.1251 62.5303L58.1042 56.5024Z" fill="#101012"/>
<path d="M49.748 62.0594C49.2852 62.2737 49.0445 62.4679 48.8509 62.6567L49.2922 63.6095C49.4931 63.4007 49.7401 63.2202 50.094 63.0563C50.6656 62.7916 51.1363 62.9869 51.4578 63.6811L53.437 67.955L51.7764 68.724L52.2177 69.6768L53.8782 68.9078L54.6283 70.5276L55.7581 70.0044L55.008 68.3846L56.0288 67.9119L55.5876 66.9591L54.5667 67.4319L52.5371 63.049C52.0202 61.9329 51.0411 61.4606 49.748 62.0594Z" fill="#101012"/>
<path d="M45.6934 63.376C44.5564 63.5793 43.9311 64.0874 43.4847 64.9139L43.3103 63.9394L42.0848 64.1586L42.996 69.2527C43.3816 71.4085 44.8336 71.7736 46.3101 71.5095C47.8015 71.2427 49.088 70.3421 48.9361 68.5559L47.7106 68.7752C47.7615 69.7413 47.2501 70.2899 46.1869 70.4801C45.0057 70.6914 44.4407 70.2591 44.2215 69.0335L44.1212 68.4724L45.2286 68.2743C47.2072 67.9204 48.9889 66.977 48.6693 65.1903C48.3867 63.6104 47.1256 63.1198 45.6934 63.376ZM45.7496 64.3716C46.8274 64.1788 47.3012 64.6122 47.4438 65.4095C47.6471 66.5465 46.5789 67.1338 45.0285 67.4111L43.9653 67.6013L43.7937 66.6415C43.5797 65.4455 44.4502 64.6041 45.7496 64.3716Z" fill="#101012"/>
<path d="M36.9411 63.7213C35.0683 63.4672 33.5463 64.5323 33.1549 66.1897L34.2994 66.345C34.6046 65.0997 35.6872 64.5956 36.7871 64.7449C38.2884 64.9485 39.1917 66.1004 38.9336 68.003L38.9175 68.1219C38.6694 69.9502 37.4311 70.9326 36.0191 70.741C34.9489 70.5959 34.1196 70.0141 34.0937 68.7542L32.8749 68.5888C32.8445 70.598 34.2598 71.5469 35.8799 71.7666C37.9609 72.049 39.8731 70.6735 40.1958 68.2953L40.2119 68.1764C40.5386 65.7685 39.1112 64.0157 36.9411 63.7213Z" fill="#101012"/>
<path d="M30.435 61.8707C29.9646 61.6738 29.6589 61.6271 29.3889 61.6117L28.9835 62.5803C29.2731 62.5876 29.573 62.6481 29.9328 62.7987C30.5139 63.042 30.6874 63.5211 30.392 64.2268L28.5734 68.5715L26.8853 67.8649L26.4799 68.8335L28.168 69.5401L27.4788 71.1867L28.6273 71.6674L29.3165 70.0208L30.3542 70.4552L30.7596 69.4866L29.7219 69.0522L31.5868 64.5968C32.0617 63.4622 31.7495 62.4209 30.435 61.8707Z" fill="#101012"/>
<path d="M26.7483 59.7696C25.8319 59.0665 25.0352 58.9468 24.1236 59.1739L24.7263 58.3884L23.7385 57.6306L20.5884 61.7364C19.2553 63.4739 19.9639 64.7927 21.154 65.7058C22.356 66.628 23.8883 66.9718 25.1058 65.656L24.118 64.8982C23.4384 65.5868 22.6885 65.5786 21.8316 64.9211C20.8796 64.1907 20.8183 63.482 21.5762 62.4942L21.9231 62.042L22.8157 62.7268C24.4104 63.9503 26.3081 64.6311 27.4129 63.1911C28.3899 61.9177 27.9027 60.6553 26.7483 59.7696ZM26.0504 60.482C26.9192 61.1486 26.9182 61.7906 26.4251 62.4332C25.7221 63.3496 24.5683 62.956 23.3187 61.9972L22.4618 61.3398L23.0553 60.5663C23.7949 59.6023 25.0032 59.6785 26.0504 60.482Z" fill="#101012"/>
<path d="M18.9711 50.7981C18.12 49.1106 16.3803 48.4592 14.7926 49.0751L15.3127 50.1064C16.5119 49.6528 17.5403 50.2597 18.0402 51.2508C18.7224 52.6035 18.2845 54.0003 16.5702 54.8649L16.463 54.9189C14.8157 55.7497 13.3047 55.2854 12.663 54.013C12.1767 53.0487 12.1866 52.0358 13.2104 51.301L12.6565 50.2028C10.9833 51.3154 11.0026 53.0193 11.7389 54.4791C12.6845 56.3541 14.901 57.1515 17.0439 56.0707L17.1511 56.0167C19.3207 54.9224 19.9572 52.7535 18.9711 50.7981Z" fill="#101012"/>
<path d="M15.7117 44.0276C15.9314 45.6023 14.9075 46.7297 13.1396 46.9765L13.0207 46.9931C11.238 47.2419 9.9424 46.4231 9.72469 44.8632C9.50904 43.3182 10.5289 42.1611 12.3265 41.9102L12.4305 41.8957C14.1835 41.651 15.4939 42.4677 15.7117 44.0276ZM16.7388 43.8994C16.4298 41.6859 14.5845 40.2926 12.2373 40.6202L12.1184 40.6368C9.78604 40.9623 8.39275 42.8076 8.69962 45.0063C9.0065 47.205 10.8667 48.5962 13.1991 48.2707L13.3179 48.2541C15.5909 47.9368 17.0477 46.1129 16.7388 43.8994Z" fill="#101012"/>
<path d="M16.1305 38.6527L16.3684 37.4306L11.701 36.5219C10.317 36.2524 9.79338 35.096 10.0141 33.9623C10.2549 32.7255 10.9704 32.2689 12.3249 32.5326L17.1395 33.47L17.3775 32.2479L12.6512 31.3277C10.4132 30.892 9.32669 31.8419 9.01708 33.432C8.77055 34.6982 9.23739 35.6755 9.89005 36.1693L8.66799 35.9314L8.43006 37.1534L16.1305 38.6527Z" fill="#101012"/>
<path d="M19.0785 28.4129L19.8219 27.4141L16.0075 24.5751C14.8764 23.7332 14.9048 22.4641 15.5944 21.5376C16.3467 20.5268 17.1893 20.4247 18.2963 21.2487L22.2311 24.1773L22.9744 23.1786L19.1119 20.3037C17.2829 18.9424 15.8923 19.3285 14.925 20.628C14.1548 21.6628 14.1528 22.7458 14.5274 23.4735L13.5287 22.7301L12.7854 23.7288L19.0785 28.4129Z" fill="#101012"/>
<path d="M25.7965 19.8472C24.4872 20.7493 23.0205 20.339 22.0078 18.8692L21.9397 18.7703C20.9184 17.2881 21.0699 15.763 22.3668 14.8694C23.6514 13.9843 25.1428 14.3775 26.1726 15.8721L26.2322 15.9586C27.2364 17.4161 27.0935 18.9536 25.7965 19.8472ZM26.3714 20.708C28.2119 19.4399 28.6306 17.1659 27.2859 15.2143L27.2178 15.1155C25.8817 13.1762 23.6077 12.7575 21.7796 14.0171C19.9515 15.2766 19.5413 17.563 20.8774 19.5022L20.9455 19.6011C22.2476 21.4909 24.531 21.9761 26.3714 20.708Z" fill="#101012"/>
<path d="M33.14 17.317C34.9648 16.7701 35.6232 15.5707 35.2141 14.2056C34.7362 12.6107 33.5408 12.5931 31.9029 12.7708C30.4503 12.9399 29.9949 12.7788 29.7925 12.1035C29.5988 11.4569 30.03 10.8579 30.8921 10.5995C31.8404 10.3154 32.4079 10.5368 32.8257 11.3041L33.9752 10.9597C33.2875 9.39629 31.96 9.19905 30.6094 9.6038C29.4311 9.95688 28.2814 11.0844 28.6991 12.4781C29.0909 13.7857 29.9155 14.1336 31.9773 13.9073C33.2057 13.774 33.8723 13.8561 34.1092 14.6464C34.3503 15.451 33.9636 15.9897 32.8285 16.3299C31.6215 16.6915 30.9794 16.2733 30.6263 15.4082L29.4624 15.757C29.995 17.2729 31.3439 17.8552 33.14 17.317Z" fill="#101012"/>
<path d="M40.2348 15.1846C38.6451 15.1539 37.6929 13.9653 37.7273 12.1807L37.7296 12.0607C37.7644 10.261 38.7768 9.11034 40.3515 9.14074C41.9112 9.17084 42.8934 10.36 42.8584 12.1747L42.8564 12.2797C42.8222 14.0493 41.8095 15.215 40.2348 15.1846ZM40.1998 16.2191C42.4344 16.2623 44.1007 14.6591 44.1464 12.2896L44.1487 12.1696C44.1942 9.81502 42.591 8.14877 40.3715 8.10593C38.1519 8.06309 36.4853 9.68123 36.4399 12.0358L36.4376 12.1558C36.3933 14.4503 37.9653 16.176 40.1998 16.2191Z" fill="#101012"/>
<path d="M47.7906 17.3829C48.2786 17.5312 48.5875 17.5466 48.8576 17.5346L49.1628 16.53C48.874 16.552 48.5695 16.5222 48.1963 16.4088C47.5935 16.2257 47.3724 15.7666 47.5948 15.0346L48.9639 10.528L50.7149 11.0599L51.0201 10.0553L49.2691 9.52332L49.7879 7.8154L48.5967 7.45351L48.0778 9.16143L47.0014 8.83442L46.6962 9.83908L47.7726 10.1661L46.3687 14.7875C46.0111 15.9644 46.4272 16.9687 47.7906 17.3829Z" fill="#101012"/>
<path d="M50.3018 18.1889L51.3919 18.7903L53.4713 15.0208C54.4059 13.3265 55.525 13.3785 56.9403 14.0736L57.5055 13.0491C56.2491 12.4074 55.361 12.6199 54.5001 13.1557L55.1812 11.9211L54.091 11.3198L50.3018 18.1889Z" fill="#101012"/>
<path d="M55.875 21.9571C56.7093 22.7558 57.4882 22.9616 58.4191 22.8352L57.7345 23.5504L58.6338 24.4113L62.2124 20.6731C63.7269 19.0912 63.1662 17.703 62.0826 16.6657C60.9883 15.6181 59.5025 15.1094 58.1489 16.2847L59.0483 17.1456C59.7988 16.5352 60.5434 16.625 61.3236 17.3719C62.1904 18.2017 62.1741 18.9129 61.3131 19.8122L60.9189 20.2239L60.1063 19.446C58.6544 18.056 56.8422 17.1725 55.587 18.4836C54.4771 19.643 54.8239 20.9509 55.875 21.9571ZM56.6462 21.325C55.8553 20.5677 55.9262 19.9296 56.4864 19.3445C57.2851 18.5102 58.3891 19.0272 59.5268 20.1164L60.3069 20.8632L59.6327 21.5675C58.7925 22.4452 57.5998 22.2378 56.6462 21.325Z" fill="#101012"/>
<path d="M60.9343 28.0752C61.8729 29.733 63.1886 30.1085 64.4287 29.4064C65.8776 28.5861 65.6292 27.4167 65.0922 25.8591C64.6046 24.4804 64.6605 24.0006 65.274 23.6533C65.8614 23.3207 66.5412 23.6081 66.9846 24.3913C67.4723 25.2528 67.3825 25.8552 66.7271 26.4331L67.3184 27.4774C68.6899 26.4595 68.5873 25.1214 67.8926 23.8944C67.2866 22.824 65.9319 21.9535 64.6658 22.6703C63.4779 23.3428 63.3219 24.2241 64.0006 26.1841C64.4034 27.3523 64.4714 28.0205 63.7535 28.4269C63.0225 28.8408 62.4114 28.5835 61.8276 27.5523C61.2068 26.4558 61.472 25.7368 62.237 25.2003L61.6384 24.143C60.2787 24.999 60.0106 26.4436 60.9343 28.0752Z" fill="#101012"/>
<path d="M67.8575 35.3694C67.938 35.8882 68.4198 36.2536 68.9534 36.1708C69.487 36.0879 69.8353 35.5936 69.7548 35.0748C69.6742 34.5561 69.1925 34.1906 68.6588 34.2735C68.1252 34.3563 67.7769 34.8506 67.8575 35.3694Z" fill="#101012"/>
</svg>
