<svg width="44" height="44" viewBox="0 0 44 44" fill="none" xmlns="http://www.w3.org/2000/svg">
<rect x="3.86603" y="20.6961" width="30" height="20" rx="3" transform="rotate(-30 3.86603 20.6961)" fill="white" stroke="#101012" stroke-width="2"/>
<path fill-rule="evenodd" clip-rule="evenodd" d="M9.69616 20.7942L7.96411 21.7942L8.96411 23.5262L10.6962 22.5262L11.6962 24.2583L13.4282 23.2583L14.4282 24.9903L16.1603 23.9903L17.1603 25.7224L15.4282 26.7224L16.4282 28.4544L14.6962 29.4544L15.6962 31.1865L13.9641 32.1865L14.9641 33.9185L16.6962 32.9185L15.6962 31.1865L17.4282 30.1865L16.4282 28.4544L18.1603 27.4544L17.1603 25.7224L18.8923 24.7224L19.8923 26.4544L21.6244 25.4544L22.6244 27.1865L24.3564 26.1865L26.0885 25.1865L25.0885 23.4544L26.8205 22.4544L25.8205 20.7224L27.5526 19.7224L28.5526 21.4544L30.2846 20.4544L31.2846 22.1865L33.0167 21.1865L34.0167 22.9185L35.7487 21.9185L34.7487 20.1865L33.0167 21.1865L32.0167 19.4544L30.2846 20.4544L29.2846 18.7224L27.5526 19.7224L26.5526 17.9903L28.2846 16.9903L27.2846 15.2583L29.0167 14.2583L28.0167 12.5262L29.7487 11.5262L28.7487 9.79419L27.0167 10.7942L28.0167 12.5262L26.2846 13.5262L27.2846 15.2583L25.5526 16.2583L26.5526 17.9903L24.8205 18.9903L25.8205 20.7224L24.0885 21.7224L25.0885 23.4544L23.3564 24.4544L21.6244 25.4544L20.6244 23.7224L18.8923 24.7224L17.8923 22.9903L16.1603 23.9903L15.1603 22.2583L13.4282 23.2583L12.4282 21.5262L10.6962 22.5262L9.69616 20.7942Z" fill="#101012"/>
</svg>
