<svg width="16" height="16" viewBox="0 0 16 16" fill="none" xmlns="http://www.w3.org/2000/svg">
<mask id="path-1-inside-1_1941_52234" fill="white">
<path fill-rule="evenodd" clip-rule="evenodd" d="M4.36523 1.68261C4.36523 2.6119 3.6119 3.36523 2.68261 3.36523C1.75333 3.36523 1 2.6119 1 1.68261C1 0.753332 1.75333 0 2.68261 0C3.6119 0 4.36523 0.753332 4.36523 1.68261ZM5.95412 13.9755L5.95412 4.64033L8.73644 4.64033V5.9169H8.77566C9.16247 5.18402 10.1084 4.40962 11.5195 4.40962C14.4587 4.40962 15.0001 6.34217 15.0001 8.85686L15.0001 13.9762L12.1001 13.9762L12.1001 9.43593C12.1001 8.35392 12.0817 6.96123 10.5921 6.96123C9.08173 6.96123 8.85256 8.1409 8.85256 9.35903L8.85256 13.9755H5.95412ZM4.13385 4.64033L1.23081 4.64033L1.23081 13.9755H4.13385L4.13385 4.64033Z"/>
</mask>
<path fill-rule="evenodd" clip-rule="evenodd" d="M4.36523 1.68261C4.36523 2.6119 3.6119 3.36523 2.68261 3.36523C1.75333 3.36523 1 2.6119 1 1.68261C1 0.753332 1.75333 0 2.68261 0C3.6119 0 4.36523 0.753332 4.36523 1.68261ZM5.95412 13.9755L5.95412 4.64033L8.73644 4.64033V5.9169H8.77566C9.16247 5.18402 10.1084 4.40962 11.5195 4.40962C14.4587 4.40962 15.0001 6.34217 15.0001 8.85686L15.0001 13.9762L12.1001 13.9762L12.1001 9.43593C12.1001 8.35392 12.0817 6.96123 10.5921 6.96123C9.08173 6.96123 8.85256 8.1409 8.85256 9.35903L8.85256 13.9755H5.95412ZM4.13385 4.64033L1.23081 4.64033L1.23081 13.9755H4.13385L4.13385 4.64033Z" fill="#101012"/>
<path d="M5.95412 4.64033V3.64033H4.95412V4.64033H5.95412ZM5.95412 13.9755L4.95412 13.9755V14.9755L5.95412 14.9755L5.95412 13.9755ZM8.73644 4.64033H9.73644L9.73644 3.64033H8.73644V4.64033ZM8.73644 5.9169H7.73644L7.73644 6.9169H8.73644L8.73644 5.9169ZM8.77566 5.9169L8.77566 6.9169H9.37859L9.66003 6.38368L8.77566 5.9169ZM15.0001 13.9762V14.9762H16.0001V13.9762H15.0001ZM12.1001 13.9762H11.1001V14.9762H12.1001V13.9762ZM8.85256 13.9755V14.9755H9.85256V13.9755H8.85256ZM1.23081 4.64033L1.23081 3.64033H0.230806L0.230806 4.64033H1.23081ZM4.13385 4.64033H5.13385V3.64033H4.13385V4.64033ZM1.23081 13.9755H0.230806L0.230806 14.9755H1.23081L1.23081 13.9755ZM4.13385 13.9755V14.9755L5.13385 14.9755L5.13385 13.9755L4.13385 13.9755ZM2.68261 4.36523C4.16418 4.36523 5.36523 3.16418 5.36523 1.68261L3.36523 1.68261C3.36523 2.05961 3.05961 2.36523 2.68261 2.36523L2.68261 4.36523ZM0 1.68261C0 3.16418 1.20105 4.36523 2.68261 4.36523L2.68261 2.36523C2.30562 2.36523 2 2.05961 2 1.68261L0 1.68261ZM2.68261 -1C1.20105 -1 0 0.201047 0 1.68261L2 1.68261C2 1.30562 2.30562 1 2.68261 1V-1ZM5.36523 1.68261C5.36523 0.201047 4.16418 -1 2.68261 -1V1C3.05961 1 3.36523 1.30562 3.36523 1.68261L5.36523 1.68261ZM4.95412 4.64033L4.95412 13.9755L6.95412 13.9755L6.95412 4.64033H4.95412ZM8.73644 3.64033L5.95412 3.64033V5.64033L8.73644 5.64033V3.64033ZM9.73644 5.9169V4.64033H7.73644V5.9169H9.73644ZM8.77566 4.9169H8.73644L8.73644 6.9169H8.77566L8.77566 4.9169ZM11.5195 3.40962C9.72015 3.40962 8.44296 4.4049 7.89128 5.45012L9.66003 6.38368C9.88199 5.96315 10.4966 5.40962 11.5195 5.40962L11.5195 3.40962ZM16.0001 8.85686C16.0001 7.57781 15.8736 6.2128 15.2079 5.15694C14.4755 3.99518 13.2351 3.40962 11.5195 3.40962L11.5195 5.40962C12.7431 5.40962 13.243 5.79034 13.5161 6.22353C13.8559 6.76261 14.0001 7.62122 14.0001 8.85686H16.0001ZM16.0001 13.9762L16.0001 8.85686H14.0001L14.0001 13.9762H16.0001ZM12.1001 14.9762L15.0001 14.9762V12.9762L12.1001 12.9762V14.9762ZM11.1001 9.43593L11.1001 13.9762L13.1001 13.9762L13.1001 9.43593L11.1001 9.43593ZM10.5921 7.96123C10.805 7.96123 10.874 8.0089 10.8836 8.01565C10.8954 8.02386 10.932 8.0521 10.9745 8.15997C11.0826 8.43376 11.1001 8.84997 11.1001 9.43593L13.1001 9.43593C13.1001 8.93988 13.1084 8.11874 12.8349 7.42568C12.6866 7.05013 12.4393 6.66256 12.0286 6.37583C11.6159 6.08764 11.124 5.96123 10.5921 5.96123V7.96123ZM9.85256 9.35903C9.85256 8.76765 9.91768 8.39326 10.032 8.18545C10.0762 8.10519 10.1193 8.06616 10.1679 8.03923C10.2223 8.00908 10.3445 7.96123 10.5921 7.96123V5.96123C10.0845 5.96123 9.6117 6.06083 9.19833 6.28995C8.77917 6.52227 8.48175 6.85429 8.27983 7.22121C7.90201 7.90777 7.85256 8.73228 7.85256 9.35903H9.85256ZM9.85256 13.9755L9.85256 9.35903H7.85256L7.85256 13.9755H9.85256ZM5.95412 14.9755H8.85256V12.9755H5.95412L5.95412 14.9755ZM1.23081 5.64033L4.13385 5.64033L4.13385 3.64033L1.23081 3.64033L1.23081 5.64033ZM2.23081 13.9755L2.23081 4.64033H0.230806L0.230806 13.9755H2.23081ZM4.13385 12.9755H1.23081L1.23081 14.9755H4.13385L4.13385 12.9755ZM3.13385 4.64033L3.13385 13.9755L5.13385 13.9755L5.13385 4.64033H3.13385Z" fill="#101012" mask="url(#path-1-inside-1_1941_52234)"/>
</svg>
