<svg width="89" height="16" viewBox="0 0 89 16" fill="none" xmlns="http://www.w3.org/2000/svg">
<path d="M0.862549 15.6098V0.450283H3.2329V2.61163C3.65175 1.79112 4.20388 1.15072 4.88928 0.690432C5.59372 0.230144 6.4124 0 7.3453 0C8.39244 0 9.26823 0.260163 9.97267 0.780488C10.6962 1.2808 11.2102 2.01126 11.5148 2.97186C11.9337 2.05128 12.5144 1.33083 13.2569 0.810507C14.0184 0.270169 14.9133 0 15.9414 0C17.3693 0 18.464 0.430269 19.2256 1.29081C20.0062 2.13133 20.3965 3.39212 20.3965 5.07317V15.6098H18.0547V5.61351C18.0547 4.45278 17.8262 3.59224 17.3693 3.03189C16.9124 2.45153 16.2174 2.16135 15.2845 2.16135C14.5991 2.16135 13.9994 2.34146 13.4854 2.70169C12.9713 3.06191 12.562 3.60225 12.2573 4.3227C11.9527 5.02314 11.8004 5.88368 11.8004 6.90432V15.6098H9.45862V5.61351C9.45862 4.45278 9.23016 3.59224 8.77322 3.03189C8.31629 2.45153 7.63089 2.16135 6.71702 2.16135C6.03162 2.16135 5.42237 2.34146 4.88928 2.70169C4.37523 3.06191 3.96589 3.60225 3.66127 4.3227C3.37569 5.02314 3.2329 5.88368 3.2329 6.90432V15.6098H0.862549Z" fill="#101012"/>
<path d="M24.4772 15.6098V0.480301H26.819V15.6098H24.4772Z" fill="#101012"/>
<path d="M31.1367 15.6098V0.480301H33.507V2.91182C34.002 2.01126 34.6589 1.30081 35.4775 0.780488C36.2962 0.260163 37.2482 0 38.3334 0C39.9517 0 41.1987 0.540338 42.0745 1.62101C42.9694 2.68168 43.4168 4.1626 43.4168 6.06379V15.6098H41.075V6.36398C41.075 4.98311 40.7894 3.94247 40.2182 3.24203C39.6661 2.52158 38.8284 2.16135 37.7051 2.16135C36.8864 2.16135 36.1534 2.3915 35.5061 2.85178C34.8778 3.31207 34.3828 3.96248 34.0211 4.803C33.6784 5.64353 33.507 6.61413 33.507 7.71482V15.6098H31.1367Z" fill="#101012"/>
<path d="M47.5002 15.6098V0.480301H49.842V15.6098H47.5002Z" fill="#101012"/>
<path d="M54.1596 15.6098V0.450283H56.53V2.61163C56.9488 1.79112 57.501 1.15072 58.1864 0.690432C58.8908 0.230144 59.7095 0 60.6424 0C61.6895 0 62.5653 0.260163 63.2698 0.780488C63.9932 1.2808 64.5073 2.01126 64.8119 2.97186C65.2308 2.05128 65.8115 1.33083 66.554 0.810507C67.3155 0.270169 68.2104 0 69.2385 0C70.6664 0 71.7611 0.430269 72.5227 1.29081C73.3033 2.13133 73.6936 3.39212 73.6936 5.07317V15.6098H71.3518V5.61351C71.3518 4.45278 71.1233 3.59224 70.6664 3.03189C70.2095 2.45153 69.5145 2.16135 68.5816 2.16135C67.8962 2.16135 67.2965 2.34146 66.7824 2.70169C66.2684 3.06191 65.8591 3.60225 65.5544 4.3227C65.2498 5.02314 65.0975 5.88368 65.0975 6.90432V15.6098H62.7557V5.61351C62.7557 4.45278 62.5272 3.59224 62.0703 3.03189C61.6134 2.45153 60.928 2.16135 60.0141 2.16135C59.3287 2.16135 58.7195 2.34146 58.1864 2.70169C57.6723 3.06191 57.263 3.60225 56.9584 4.3227C56.6728 5.02314 56.53 5.88368 56.53 6.90432V15.6098H54.1596Z" fill="#101012"/>
<path d="M81.6011 16C80.5921 16 79.7258 15.8099 79.0023 15.4296C78.2979 15.0494 77.7648 14.5291 77.403 13.8687C77.0603 13.2083 76.889 12.4878 76.889 11.7073C76.889 10.3865 77.3269 9.34584 78.2027 8.58537C79.0975 7.80488 80.3922 7.27455 82.0866 6.99437L85.0567 6.51407C85.6279 6.43402 86.0086 6.29394 86.199 6.09381C86.4085 5.89368 86.5132 5.5935 86.5132 5.19325C86.5132 4.29268 86.199 3.56223 85.5707 3.00188C84.9615 2.42151 84.1047 2.13133 83.0005 2.13133C81.9343 2.13133 81.0966 2.41151 80.4874 2.97186C79.8971 3.53221 79.564 4.29268 79.4878 5.25328H77.1175C77.1936 4.13258 77.4887 3.18199 78.0028 2.4015C78.5359 1.601 79.2403 1.00063 80.1161 0.600376C80.9919 0.200125 81.9819 0 83.0862 0C84.2666 0 85.2852 0.220138 86.1419 0.660413C87.0177 1.10069 87.6841 1.72108 88.141 2.52158C88.5979 3.30206 88.8264 4.22264 88.8264 5.2833V15.6098H86.5132V12.5178C86.0753 13.5985 85.4184 14.449 84.5426 15.0694C83.6669 15.6898 82.6863 16 81.6011 16ZM82.1152 13.9587C82.9719 13.9587 83.7335 13.7186 84.3998 13.2383C85.0853 12.758 85.6088 12.0976 85.9706 11.257C86.3323 10.4165 86.5132 9.48593 86.5132 8.46529V7.8349C86.3799 7.93496 86.18 8.02502 85.9134 8.10507C85.6659 8.1651 85.3708 8.22514 85.0281 8.28518L82.6863 8.6454C81.6011 8.82552 80.7539 9.13571 80.1446 9.57599C79.5544 10.0163 79.2593 10.6567 79.2593 11.4972C79.2593 12.2376 79.5164 12.838 80.0304 13.2983C80.5635 13.7386 81.2584 13.9587 82.1152 13.9587Z" fill="#101012"/>
</svg>
