<svg width="64" height="64" viewBox="0 0 64 64" fill="none" xmlns="http://www.w3.org/2000/svg">
<path fill-rule="evenodd" clip-rule="evenodd" d="M37 14H35V16V18H37V16V14ZM38 20V22H36V20H38ZM34 24H36V22H34H32H30H28V20H26V22H28V24H30H32H34ZM27 16V18H29V16V14H27V16Z" fill="#101012"/>
<path fill-rule="evenodd" clip-rule="evenodd" d="M31 46H33V48H31V46ZM35 52H33V54H31V52H29V54H27V56H25V58H27V56H29V58H31V56H33V58H35V56H37V58H39V56H37V54H35V52ZM35 54V56H33V54H35ZM31 56V54H29V56H31Z" fill="#101012"/>
<path d="M13 59H51" stroke="#101012" stroke-width="2"/>
<path d="M13 5H51" stroke="#101012" stroke-width="2"/>
<path d="M36.8793 30.5237L36.403 29.6444L36.8793 30.5237ZM39.6205 34.9611L40.0968 34.0818L39.6205 34.9611ZM36.8793 33.4763L36.403 34.3556L36.8793 33.4763ZM49 5V14.9702H47V5H49ZM37.3556 32.597L40.0968 34.0818L39.1442 35.8404L36.403 34.3556L37.3556 32.597ZM49 49.0298V59H47V49.0298H49ZM40.0968 29.9182L37.3556 31.403L36.403 29.6444L39.1442 28.1596L40.0968 29.9182ZM37.3556 31.403C37.1365 31.5217 37 31.7508 37 32H35C35 31.0168 35.5385 30.1127 36.403 29.6444L37.3556 31.403ZM40.0968 34.0818C45.5826 37.0533 49 42.7909 49 49.0298H47C47 43.5249 43.9846 38.4623 39.1442 35.8404L40.0968 34.0818ZM49 14.9702C49 21.2091 45.5826 26.9467 40.0968 29.9182L39.1442 28.1596C43.9847 25.5377 47 20.4751 47 14.9702H49ZM36.403 34.3556C35.5385 33.8873 35 32.9832 35 32H37C37 32.2492 37.1365 32.4783 37.3556 32.597L36.403 34.3556Z" fill="#101012"/>
<path d="M27.1207 30.5237L27.597 29.6444L27.1207 30.5237ZM24.3795 34.9611L23.9032 34.0818L24.3795 34.9611ZM27.1207 33.4763L27.597 34.3556L27.1207 33.4763ZM15 5V14.9702H17V5H15ZM26.6444 32.597L23.9032 34.0818L24.8558 35.8404L27.597 34.3556L26.6444 32.597ZM15 49.0298V59H17V49.0298H15ZM23.9032 29.9182L26.6444 31.403L27.597 29.6444L24.8558 28.1596L23.9032 29.9182ZM26.6444 31.403C26.8635 31.5217 27 31.7508 27 32H29C29 31.0168 28.4615 30.1127 27.597 29.6444L26.6444 31.403ZM23.9032 34.0818C18.4174 37.0533 15 42.7909 15 49.0298H17C17 43.5249 20.0154 38.4623 24.8558 35.8404L23.9032 34.0818ZM15 14.9702C15 21.2091 18.4174 26.9467 23.9032 29.9182L24.8558 28.1596C20.0153 25.5377 17 20.4751 17 14.9702H15ZM27.597 34.3556C28.4615 33.8873 29 32.9832 29 32H27C27 32.2492 26.8635 32.4783 26.6444 32.597L27.597 34.3556Z" fill="#101012"/>
</svg>
