<svg width="16" height="16" viewBox="0 0 16 16" fill="none" xmlns="http://www.w3.org/2000/svg">
<path d="M1.26876 3.52466C2.94809 5.27523 5.27605 6.39673 7.85371 6.53153L8.49933 6.5653L8.36966 5.93193C8.32509 5.71422 8.29906 5.49446 8.29906 5.28038C8.29906 3.74771 9.5379 2.50001 11.0775 2.50001L11.0786 2.50001C11.4591 2.49917 11.8356 2.57669 12.1848 2.72774C12.534 2.87879 12.8483 3.10014 13.1082 3.37798L13.297 3.57979L13.5683 3.52733C13.7855 3.48532 14.0003 3.43307 14.212 3.37082C14.1008 3.46317 13.982 3.54718 13.8564 3.62182L14.1654 4.5488C14.2684 4.53768 14.3709 4.52407 14.4728 4.50811C14.3398 4.62319 14.2023 4.73284 14.0607 4.83653L13.8385 4.99909L13.8571 5.27371C13.8654 5.39637 13.8656 5.52179 13.8656 5.66688C13.8656 9.78788 10.7324 14.4984 5.03593 14.4984C3.96786 14.4984 2.94688 14.3106 2.00173 13.9656C3.18068 13.7639 4.26229 13.2716 5.17119 12.5597L6.27374 11.6961L4.87356 11.6662C3.92778 11.646 3.10077 11.1625 2.61181 10.4361C2.87986 10.4223 3.14598 10.3813 3.40608 10.3138L3.37952 9.33977C2.34864 9.13121 1.52672 8.35741 1.25119 7.35311C1.53195 7.43063 1.82163 7.47594 2.11468 7.48748L3.88493 7.5572L2.41234 6.57226C1.66268 6.07086 1.173 5.22005 1.173 4.25551L1.17299 4.25388C1.17219 4.00652 1.20468 3.76132 1.26876 3.52466Z" fill="#101012" stroke="#101012"/>
</svg>
